<svg id="sw-js-blob-svg" viewBox="0 0 100 100" xmlns="http://www.w3.org/2000/svg">                    <defs>                         <linearGradient id="sw-gradient" x1="0" x2="1" y1="1" y2="0">                            <stop id="stop1" stop-color="rgba(248, 117, 55, 1)" offset="0%"></stop>                            <stop id="stop2" stop-color="rgba(251, 168, 31, 1)" offset="100%"></stop>                        </linearGradient>                    </defs>                <path fill="url(#sw-gradient)" d="M17,-23.7C22.8,-19.3,28.6,-15.2,31.3,-9.6C33.9,-3.9,33.5,3.4,32.1,11.3C30.8,19.2,28.6,27.8,23.1,28.8C17.6,29.9,8.8,23.5,-0.4,24C-9.5,24.5,-19,31.9,-26.3,31.4C-33.6,30.9,-38.6,22.5,-37.5,14.8C-36.4,7.1,-29.2,0,-25.9,-8C-22.7,-15.9,-23.5,-24.7,-19.8,-29.8C-16.2,-34.9,-8.1,-36.3,-1.2,-34.7C5.6,-33,11.3,-28.1,17,-23.7Z" width="100%" height="100%" transform="translate(50 50)" stroke-width="0" style="transition: all 0.3s ease 0s;"></path>              </svg>